<?xml version="1.0" encoding="UTF-8"?>
<svg width="15px" height="16px" viewBox="0 0 15 16" version="1.1" xmlns="http://www.w3.org/2000/svg" xmlns:xlink="http://www.w3.org/1999/xlink">
    <!-- Generator: Sketch 52.1 (67048) - http://www.bohemiancoding.com/sketch -->
    <title>Group 14</title>
    <desc>Created with Sketch.</desc>
    <g id="Page-3" stroke="none" stroke-width="1" fill="none" fill-rule="evenodd">
        <g id="NAV-CONCEPT-1" transform="translate(-814.000000, -1170.000000)" fill-rule="nonzero">
            <g id="Group-37" transform="translate(0.000000, 961.000000)">
                <g id="Group-4" transform="translate(814.000000, 207.000000)">
                    <g id="Group-23">
                        <g id="Group-15" transform="translate(0.000000, 2.000000)">
                            <g id="Group-44">
                                <g id="Group-14">
                                    <rect id="Rectangle-8" fill="#05EEE8" x="0" y="0.5" width="15" height="15" rx="2"></rect>
                                    <ellipse id="Oval-9" fill="#2D2D3B" cx="7.5" cy="4.94444444" rx="2" ry="1.94444444"></ellipse>
                                    <path d="M7.5,8.11111111 C10.0479166,8.11111111 11.3786059,9.56314014 11.4920679,12.4671982 L11.4919599,12.4672024 C11.5005821,12.6878882 11.3286706,12.8737792 11.1079847,12.8824014 C11.1027832,12.8826046 11.0975783,12.8827062 11.0923728,12.8827062 L3.90772573,12.8828005 C3.68675978,12.8828005 3.50763148,12.7036722 3.50763148,12.4827062 C3.50763148,12.4774966 3.50773323,12.4722874 3.50793668,12.4670817 C3.62142964,9.56310132 4.95211741,8.11111111 7.5,8.11111111 Z" id="Rectangle-6" fill="#2D2D3B"></path>
                                </g>
                            </g>
                        </g>
                    </g>
                </g>
            </g>
        </g>
    </g>
</svg>