<?xml version="1.0" encoding="UTF-8"?>
<svg width="15px" height="18px" viewBox="0 0 15 18" version="1.1" xmlns="http://www.w3.org/2000/svg" xmlns:xlink="http://www.w3.org/1999/xlink">
    <!-- Generator: Sketch 52.1 (67048) - http://www.bohemiancoding.com/sketch -->
    <title>Fill 1</title>
    <desc>Created with Sketch.</desc>
    <g id="Page-1" stroke="none" stroke-width="1" fill="none" fill-rule="evenodd">
        <g id="Compare-Chart---Atlassian-Copy-4" transform="translate(-1171.000000, -21.000000)" fill="#FFFFFF">
            <path d="M1183.10175,30.3437442 C1183.07933,28.1167719 1184.9396,27.0486443 1185.02275,26.9956651 C1183.97758,25.4839548 1182.34925,25.2770182 1181.76906,25.2530188 C1180.38324,25.1143455 1179.06519,26.0591698 1178.36174,26.0591698 C1177.66038,26.0591698 1176.57511,25.2734977 1175.42589,25.2941055 C1173.91551,25.3162589 1172.52278,26.1619941 1171.74501,27.4987957 C1170.17576,30.1897868 1171.34315,34.176364 1172.87268,36.3589008 C1173.62009,37.4272001 1174.51117,38.6271317 1175.68129,38.5841988 C1176.8081,38.5397633 1177.23424,37.8637419 1178.5966,37.8637419 C1179.95883,37.8637419 1180.34166,38.5841988 1181.5342,38.5620454 C1182.74672,38.5397633 1183.51494,37.4733101 1184.25723,36.4018337 C1185.11542,35.1624898 1185.46875,33.9625153 1185.4896,33.9009924 C1185.46262,33.8887565 1183.12516,33.0039095 1183.10175,30.3437442 Z M1180.86112,23.8082409 C1181.48224,23.0636127 1181.90143,22.0305613 1181.78704,21 C1180.89253,21.0360207 1179.80813,21.5887818 1179.16633,22.3317356 C1178.59052,22.9908414 1178.08631,24.0426974 1178.22142,25.052608 C1179.22011,25.1295867 1180.23952,24.5510229 1180.86112,23.8082409 Z" id="Fill-1"></path>
        </g>
    </g>
</svg>