<?xml version="1.0" encoding="UTF-8"?>
<svg width="23px" height="23px" viewBox="0 0 23 23" version="1.1" xmlns="http://www.w3.org/2000/svg" xmlns:xlink="http://www.w3.org/1999/xlink">
    <!-- Generator: Sketch 52.1 (67048) - http://www.bohemiancoding.com/sketch -->
    <title>Group 39</title>
    <desc>Created with Sketch.</desc>
    <g id="Page-1" stroke="none" stroke-width="1" fill="none" fill-rule="evenodd">
        <g id="Group-39" transform="translate(-4.000000, -4.000000)">
            <g id="Group-38" transform="translate(4.000000, 4.000000)" fill="#2F2F3E">
                <path d="M6.98719403,10.6812687 C6.85183825,10.5041462 6.63375448,10.4106474 6.41213818,10.4347254 C6.19052189,10.4588034 5.99760649,10.5969563 5.90344776,10.7990149 L0.411940299,21.778597 C0.310224337,21.9820505 0.321097337,22.223663 0.440676682,22.4171578 C0.560256027,22.6106526 0.771492165,22.7284412 0.998955224,22.7284627 L8.64559701,22.7284627 C8.89581554,22.7342719 9.12593777,22.5920268 9.23261194,22.3656119 C10.8820896,18.9571493 9.88244776,13.774597 6.98719403,10.6812687 Z" id="Path"></path>
                <path d="M11.0149403,0.69480597 C8.23121537,4.97806736 7.90993113,10.4110713 10.1694328,14.9925672 L13.8559552,22.3656119 C13.9671221,22.5879693 14.1943724,22.7284392 14.4429701,22.7284627 L22.0882388,22.7284627 C22.3157019,22.7284412 22.526938,22.6106526 22.6465173,22.4171578 C22.7660967,22.223663 22.7769697,21.9820505 22.6752537,21.778597 C22.6752537,21.778597 12.389791,1.20526866 12.1312985,0.690686567 C12.027011,0.476949319 11.8096481,0.341706108 11.5718273,0.342583676 C11.3340065,0.343461243 11.1176475,0.480304904 11.0149403,0.69480597 Z" id="Path"></path>
            </g>
            <rect id="Rectangle" fill-rule="nonzero" x="0" y="0" width="31" height="31"></rect>
        </g>
    </g>
</svg>