<?xml version="1.0" encoding="UTF-8"?>
<svg width="23px" height="23px" viewBox="0 0 23 23" version="1.1" xmlns="http://www.w3.org/2000/svg" xmlns:xlink="http://www.w3.org/1999/xlink">
    <!-- Generator: Sketch 52.2 (67145) - http://www.bohemiancoding.com/sketch -->
    <title>Fill 1</title>
    <desc>Created with Sketch.</desc>
    <g id="Page-1" stroke="none" stroke-width="1" fill="none" fill-rule="evenodd">
        <g id="Compare-Chart---Atlassian-Copy-2" transform="translate(-302.000000, -97.000000)" fill="#2F2F3E">
            <path d="M305.097689,97.0119218 C303.386917,97.0119218 302,98.3987824 302,100.109611 L302,116.902198 C302,118.613027 303.386861,119.999888 305.097689,119.999888 L313.379658,119.999888 L313.393773,111.785232 L311.259609,111.785232 C310.982259,111.785232 310.757152,111.560968 310.756083,111.283619 L310.745848,108.635694 C310.74478,108.356826 310.970562,108.1302 311.24943,108.1302 L313.379714,108.1302 L313.379714,105.571633 C313.379714,102.60244 315.193115,100.985692 317.841826,100.985692 L320.015298,100.985692 C320.293379,100.985692 320.51888,101.211137 320.51888,101.489274 L320.51888,103.722017 C320.51888,104.000042 320.293548,104.22543 320.015579,104.225599 L318.681748,104.226218 C317.241296,104.226218 316.962372,104.910707 316.962372,105.915227 L316.962372,108.130257 L320.127543,108.130257 C320.42913,108.130257 320.663122,108.393604 320.627582,108.69311 L320.313736,111.341034 C320.283707,111.594428 320.068834,111.785345 319.813697,111.785345 L316.976487,111.785345 L316.962372,120 L321.890276,120 C323.601049,120 324.98791,118.613139 324.98791,116.902367 L324.98791,100.109611 C324.987853,98.3987824 323.600993,97.0119218 321.890164,97.0119218 L305.097689,97.0119218 Z" id="Fill-1"></path>
        </g>
    </g>
</svg>