<?xml version="1.0" encoding="UTF-8"?>
<svg width="25px" height="25px" viewBox="0 0 25 25" version="1.1" xmlns="http://www.w3.org/2000/svg" xmlns:xlink="http://www.w3.org/1999/xlink">
    <!-- Generator: Sketch 52.2 (67145) - http://www.bohemiancoding.com/sketch -->
    <title>Group 38</title>
    <desc>Created with Sketch.</desc>
    <g id="Page-1" stroke="none" stroke-width="1" fill="none" fill-rule="evenodd">
        <g id="Compare-Chart---Atlassian-Copy-2" transform="translate(-1041.000000, -96.000000)" fill="#2F2F3E">
            <g id="Group-38" transform="translate(1041.000000, 96.000000)">
                <path d="M5.54052734,15.1078125 L4.6703125,18.3564453 L1.48969727,18.4237793 C0.539160156,16.6606934 4.4408921e-16,14.6435547 4.4408921e-16,12.5 C4.4408921e-16,10.4271973 0.504101563,8.47250977 1.39765625,6.75136719 L1.39833984,6.75136719 L4.2300293,7.27055664 L5.47045898,10.0851562 C5.21083984,10.842041 5.06938477,11.654541 5.06938477,12.5 C5.06938477,13.4175781 5.2355957,14.2967285 5.54052734,15.1078125" id="Fill-1"></path>
                <path d="M24.7815918,10.1648437 C24.9251465,10.9209961 25,11.7019043 25,12.5 C25,13.3949219 24.9059082,14.2678711 24.7266602,15.1099121 C24.1181152,17.975293 22.5281738,20.4773437 20.3255371,22.2479492 L20.3248535,22.2472656 L16.758252,22.0652344 L16.253418,18.9141602 C17.7149902,18.0569824 18.8571289,16.7156738 19.4587891,15.1099121 L12.774707,15.1099121 L12.774707,10.1648437 L24.7815918,10.1648437" id="Fill-4"></path>
                <path d="M20.3248535,22.2472656 L20.3255371,22.2479492 C18.1833984,23.9697754 15.462207,25 12.5,25 C7.73969727,25 3.60097656,22.3393066 1.48969727,18.4237793 L5.54052734,15.1078125 C6.59614258,17.9251465 9.31386719,19.9306152 12.5,19.9306152 C13.8694824,19.9306152 15.1524902,19.5604492 16.253418,18.9141602 L20.3248535,22.2472656" id="Fill-5"></path>
                <path d="M20.4787109,2.87773437 L16.429248,6.19301758 C15.2898437,5.48076172 13.9430176,5.06938477 12.5,5.06938477 C9.24174805,5.06938477 6.47319336,7.16689453 5.47045898,10.0851562 L1.39833984,6.75136719 L1.39765625,6.75136719 C3.47802734,2.74038086 7.66894531,-2.30926389e-14 12.5,-2.30926389e-14 C15.532959,-2.30926389e-14 18.3138672,1.08037109 20.4787109,2.87773437" id="Fill-6"></path>
            </g>
        </g>
    </g>
</svg>