<?xml version="1.0" encoding="UTF-8"?>
<svg width="15px" height="15px" viewBox="0 0 15 15" version="1.1" xmlns="http://www.w3.org/2000/svg" xmlns:xlink="http://www.w3.org/1999/xlink">
    <!-- Generator: Sketch 52.2 (67145) - http://www.bohemiancoding.com/sketch -->
    <title>Group 27</title>
    <desc>Created with Sketch.</desc>
    <g id="Page-3" stroke="none" stroke-width="1" fill="none" fill-rule="evenodd">
        <g id="Compare-Chart---Atlassian-Copy-2" transform="translate(-337.000000, -781.000000)">
            <g id="Group-27" transform="translate(337.000000, 781.000000)">
                <rect id="Rectangle-8" fill="#05EEE8" fill-rule="nonzero" x="0" y="0" width="15" height="15" rx="1.62"></rect>
                <polygon id="Path" points="1 1 14 1 14 14 1 14"></polygon>
                <g id="Shape-2" transform="translate(3.000000, 3.000000)" fill="#262635" fill-rule="nonzero">
                    <path d="M4.05,0 L4.05,9 C1.7685,8.775 0,6.8445 0,4.5 C0,2.1555 1.7685,0.225 4.05,0 Z M4.9635,0 L4.9635,4.0455 L9,4.0455 C8.7885,1.9125 7.092,0.2115 4.9635,0 Z M4.9635,4.9545 L4.9635,9 C7.0965,8.7885 8.7885,7.0875 9,4.9545 L4.9635,4.9545 Z" id="Shape"></path>
                </g>
            </g>
        </g>
    </g>
</svg>