<?xml version="1.0" encoding="UTF-8"?>
<svg width="23px" height="23px" viewBox="0 0 23 23" version="1.1" xmlns="http://www.w3.org/2000/svg" xmlns:xlink="http://www.w3.org/1999/xlink">
    <!-- Generator: Sketch 52.1 (67048) - http://www.bohemiancoding.com/sketch -->
    <title>Group 13</title>
    <desc>Created with Sketch.</desc>
    <g id="Page-1" stroke="none" stroke-width="1" fill="none" fill-rule="evenodd">
        <g id="Compare-Chart---Atlassian-Copy-3" transform="translate(-667.000000, -97.000000)">
            <g id="Company-Metrics-Box-Intercom" transform="translate(598.000000, 85.000000)">
                <g id="Company-Header" transform="translate(3.000000, 0.000000)">
                    <g id="Logo" transform="translate(54.000000, 0.000000)">
                        <g id="Group-7" transform="translate(8.000000, 8.000000)">
                            <g id="Group-13">
                                <rect id="Rectangle" fill-rule="nonzero" x="0" y="0" width="31" height="31"></rect>
                                <g id="Group-18" transform="translate(4.000000, 4.000000)" fill="#2F2F3E">
                                    <path d="M20.125,0 L2.875,0 C1.28728125,0 0,1.28728125 0,2.875 L0,20.125 C0,21.7127188 1.28728125,23 2.875,23 L20.125,23 C21.7127187,23 23,21.7127188 23,20.125 L23,2.875 C23,1.28728125 21.7127187,0 20.125,0 Z M14.5661875,4.21690625 C14.5661875,3.7935625 14.90975,3.45 15.3330937,3.45 C15.7564375,3.45 16.1,3.7935625 16.1,4.21690625 L16.1,14.4598125 C16.1,14.8831563 15.7564375,15.2267188 15.3330937,15.2267188 C14.90975,15.2267188 14.5661875,14.8831563 14.5661875,14.4598125 L14.5661875,4.21690625 Z M10.7330938,3.82878125 C10.7330938,3.4054375 11.0766563,3.061875 11.5,3.061875 C11.9233438,3.061875 12.2669063,3.4054375 12.2669063,3.82878125 L12.2669063,14.9456875 C12.2669063,15.3690312 11.9233438,15.7125937 11.5,15.7125937 C11.0766563,15.7125937 10.7330938,15.3690312 10.7330938,14.9456875 L10.7330938,3.82878125 Z M6.9,4.21690625 C6.9,3.7935625 7.2435625,3.45 7.66690625,3.45 C8.09025,3.45 8.43309375,3.7935625 8.43309375,4.21690625 L8.43309375,14.4598125 C8.43309375,14.8831563 8.09025,15.2267188 7.66690625,15.2267188 C7.2435625,15.2267188 6.9,14.8831563 6.9,14.4598125 L6.9,4.21690625 Z M3.06690625,5.75 C3.06690625,5.32665625 3.40975,4.98309375 3.83309375,4.98309375 C4.2564375,4.98309375 4.6,5.32665625 4.6,5.75 L4.6,12.6456875 C4.6,13.0690313 4.2564375,13.4125938 3.83309375,13.4125938 C3.40975,13.4125938 3.06690625,13.0690313 3.06690625,12.6456875 L3.06690625,5.75 Z M19.6657187,17.4440625 C19.5478437,17.546125 16.7073437,19.9287812 11.5,19.9287812 C6.29265625,19.9287812 3.45359375,17.546125 3.33428125,17.4440625 C3.013,17.1687812 2.97490625,16.6850625 3.25090625,16.3630625 C3.52546875,16.0425 4.00846875,16.0044063 4.32975,16.2789688 C4.3743125,16.3163438 6.91078125,18.3956875 11.4992812,18.3956875 C16.1452812,18.3956875 18.6422187,16.30125 18.6666562,16.2804063 C18.9872187,16.0044063 19.472375,16.0417813 19.7469375,16.3630625 C20.024375,16.6850625 19.987,17.1687813 19.6657187,17.4440625 Z M19.9330938,12.6456875 C19.9330938,13.0690312 19.5895313,13.4125937 19.1661875,13.4125937 C18.7428438,13.4125937 18.4,13.0690312 18.4,12.6456875 L18.4,5.75 C18.4,5.32665625 18.7428437,4.98309375 19.1661875,4.98309375 C19.5895313,4.98309375 19.9330938,5.32665625 19.9330938,5.75 L19.9330938,12.6456875 Z" id="LOGO"></path>
                                </g>
                            </g>
                        </g>
                    </g>
                </g>
            </g>
        </g>
    </g>
</svg>