<?xml version="1.0" encoding="UTF-8"?>
<svg width="23px" height="23px" viewBox="0 0 23 23" version="1.1" xmlns="http://www.w3.org/2000/svg" xmlns:xlink="http://www.w3.org/1999/xlink">
    <!-- Generator: Sketch 52.1 (67048) - http://www.bohemiancoding.com/sketch -->
    <title>Group 16</title>
    <desc>Created with Sketch.</desc>
    <g id="Page-1" stroke="none" stroke-width="1" fill="none" fill-rule="evenodd">
        <g id="Compare-Chart---Atlassian-Copy-3" transform="translate(-1037.000000, -97.000000)">
            <g id="Company-Metrics-Box-Invision" transform="translate(968.000000, 85.000000)">
                <g id="Company-Header" transform="translate(3.000000, 0.000000)">
                    <g id="Logo" transform="translate(54.000000, 0.000000)">
                        <g id="Invision-Logo">
                            <g id="Group-16" transform="translate(8.000000, 8.000000)">
                                <g id="Group-10">
                                    <g id="Group-15">
                                        <rect id="Rectangle" fill-rule="nonzero" x="0" y="0" width="31" height="31"></rect>
                                        <g id="Group-20" transform="translate(4.000000, 4.000000)">
                                            <g id="Group-3"></g>
                                        </g>
                                    </g>
                                </g>
                                <path d="M6.08500213,4 L24.9149979,4 C26.0665312,4 27,4.9334688 27,6.08500213 L27,24.9149979 C27,26.0665312 26.0665312,27 24.9149979,27 L6.08500213,27 C4.9334688,27 4,26.0665312 4,24.9149979 L4,6.08500213 C4,4.9334688 4.9334688,4 6.08500213,4 Z M11.6866,11.2364747 C12.4511568,11.2364747 13.0916608,10.6372235 13.0916608,9.85177653 C13.0916608,9.06689387 12.4511568,8.46775307 11.6866,8.46775307 C10.9219941,8.46775307 10.2816864,9.06689387 10.2816864,9.85177653 C10.2816864,10.6371253 10.9219941,11.2364747 11.6866,11.2364747 Z M8.649312,19.6904037 C8.649312,20.9096981 9.31050987,21.7190528 10.7155707,21.7190528 C11.8808059,21.7190528 12.8255355,21.0270901 13.5057589,19.9097195 L13.0904096,21.5766 L15.4043077,21.5766 L16.7268139,16.2723216 C17.0574373,14.9293179 17.6979413,14.2322155 18.6691547,14.2322155 C19.4336256,14.2322155 19.9088117,14.7076469 19.9088117,15.4925296 C19.9088117,15.7199413 19.8881547,15.9676176 19.8055019,16.2363803 L19.1235979,18.6744293 C19.0202512,19.0257589 18.9791333,19.3772235 18.9791333,19.7075648 C18.9791333,20.8650352 19.6607429,21.7116315 21.0865099,21.7116315 C22.3055589,21.7116315 23.2765883,20.9268469 23.8138805,19.0465019 L22.9048469,18.6955648 C22.4502197,19.9552411 22.0575883,20.1830453 21.7476587,20.1830453 C21.4376923,20.1830453 21.2723744,19.9765728 21.2723744,19.5635296 C21.2723744,19.3775547 21.3138725,19.1711803 21.3756843,18.9226821 L22.0370293,16.5474139 C22.2022491,15.9896608 22.2643429,15.4950688 22.2643429,15.0406256 C22.2643429,13.2636763 21.1898197,12.3363531 19.8881547,12.3363531 C18.6691547,12.3363531 17.4293136,13.4359371 16.8095648,14.5932235 L17.264008,12.5160352 L13.7309627,12.5160352 L13.2350213,14.3455963 L14.8880528,14.3455963 L13.8701648,18.4209019 C13.0708197,20.1978512 11.602512,20.2266901 11.4182176,20.1854373 C11.1156235,20.1171488 10.9220923,20.0022469 10.9220923,19.609088 C10.9220923,19.3822528 10.9634432,19.0563765 11.0667531,18.663512 L12.6165728,12.5160352 L8.6907488,12.5160352 L8.19481973,14.3455963 L9.82699787,14.3455963 L8.77341387,18.6503744 C8.6907488,19.0016549 8.649312,19.3809648 8.649312,19.6904037 Z" id="Combined-Shape" fill="#2F2F3E"></path>
                            </g>
                        </g>
                    </g>
                </g>
            </g>
        </g>
    </g>
</svg>