<?xml version="1.0" encoding="UTF-8"?>
<svg width="23px" height="23px" viewBox="0 0 23 23" version="1.1" xmlns="http://www.w3.org/2000/svg" xmlns:xlink="http://www.w3.org/1999/xlink">
    <!-- Generator: Sketch 52.2 (67145) - http://www.bohemiancoding.com/sketch -->
    <title>linked-in-square-button</title>
    <desc>Created with Sketch.</desc>
    <g id="Page-1" stroke="none" stroke-width="1" fill="none" fill-rule="evenodd">
        <g id="Compare-Chart---Atlassian-Copy-2" transform="translate(-1227.000000, -97.000000)" fill="#2F2F3E">
            <path d="M1248.29796,97 L1228.70397,97 C1227.76288,97 1227,97.7407504 1227,98.649252 L1227,118.355498 C1227,119.261113 1227.76288,120 1228.70397,120 L1248.297,120 C1249.23905,120 1250,119.261113 1250,118.355498 L1250,98.649252 C1250,97.7407504 1249.23905,97 1248.29796,97 Z M1230.59375,115.6875 L1234.1875,115.6875 L1234.1875,105.625 L1230.59375,105.625 L1230.59375,115.6875 Z M1232.381,104.1875 L1232.35983,104.1875 C1231.28728,104.1875 1230.59375,103.383796 1230.59375,102.390535 C1230.59375,101.369481 1231.30845,100.59375 1232.4013,100.59375 C1233.49486,100.59375 1234.16743,101.369481 1234.1875,102.390535 C1234.1886,103.383796 1233.49569,104.1875 1232.381,104.1875 Z M1245.6875,115.6875 L1242.39694,115.6875 L1242.39694,110.429775 C1242.39694,109.108554 1241.91301,108.200318 1240.71987,108.200318 C1239.80399,108.200318 1239.26837,108.811882 1239.03282,109.405454 C1238.94632,109.606937 1238.92361,109.901787 1238.92361,110.197606 L1238.92361,115.6875 L1235.625,115.6875 C1235.625,115.6875 1235.66665,106.777417 1235.625,105.857169 L1238.92361,105.857169 L1238.92361,107.251148 C1239.35664,106.582425 1240.14059,105.625 1241.89115,105.625 C1244.06305,105.625 1245.6875,107.030537 1245.6875,110.050608 L1245.6875,115.6875 Z M1239.21752,107.107219 C1239.22285,107.088924 1239.23101,107.070524 1239.25265,107.050451 L1239.25265,107.107219 L1239.21752,107.107219 Z" id="linked-in-square-button"></path>
        </g>
    </g>
</svg>