<?xml version="1.0" encoding="UTF-8"?>
<svg width="15px" height="15px" viewBox="0 0 15 15" version="1.1" xmlns="http://www.w3.org/2000/svg" xmlns:xlink="http://www.w3.org/1999/xlink">
    <!-- Generator: Sketch 52.1 (67048) - http://www.bohemiancoding.com/sketch -->
    <title>Group 13</title>
    <desc>Created with Sketch.</desc>
    <g id="Page-3" stroke="none" stroke-width="1" fill="none" fill-rule="evenodd">
        <g id="NAV-CONCEPT-1" transform="translate(-76.000000, -1110.000000)" fill="#05EEE8" fill-rule="nonzero">
            <g id="Group-37" transform="translate(0.000000, 961.000000)">
                <g id="Group-27" transform="translate(60.000000, 131.000000)">
                    <g id="Group-13" transform="translate(16.000000, 18.000000)">
                        <g id="Group-18">
                            <path d="M1.62,0 L13.38,0 C14.2747013,-9.59008344e-16 15,0.725298705 15,1.62 L15,13.38 C15,14.2747013 14.2747013,15 13.38,15 L1.62,15 C0.725298705,15 1.09569308e-16,14.2747013 0,13.38 L0,1.62 C-1.09569308e-16,0.725298705 0.725298705,1.64353962e-16 1.62,0 Z M10.5542013,8.90137478 C10.5542013,8.58577248 10.4768161,8.30962461 10.3220432,8.07292289 C10.1672704,7.83622117 9.92405953,7.61924785 9.59240342,7.42199641 C9.2607473,7.22474498 8.70297039,6.99163314 7.91905594,6.72265392 L7.91905594,5.1356844 C8.57834809,5.18589386 9.2215503,5.32576096 9.84868186,5.5552899 L10.4155095,4.2964734 C9.67179577,4.00238944 8.83965291,3.83741799 7.91905594,3.80155409 L7.91905594,3 L7.09293484,3 L7.09293484,3.82307233 C6.27685979,3.89480012 5.64069261,4.09832468 5.1844142,4.43365212 C4.72813578,4.76897956 4.5,5.19665012 4.5,5.71667663 C4.5,6.20083924 4.66582557,6.60699178 4.99748168,6.93514644 C5.3291378,7.2633011 5.89294473,7.56724307 6.68891941,7.84698147 L7.09293484,7.98684997 L7.09293484,9.65451285 C6.70700772,9.63299451 6.26782121,9.56306096 5.77536213,9.4447101 C5.28290306,9.32635924 4.86180661,9.19007848 4.51206016,9.03586372 L4.51206016,10.4560669 C5.2517538,10.7465645 6.11203675,10.900777 7.09293484,10.9187089 L7.09293484,12 L7.91905594,12 L7.91905594,10.8971907 C8.75121128,10.8290493 9.3984335,10.6219384 9.86074202,10.2758518 C10.3230505,9.92976516 10.5542013,9.47161074 10.5542013,8.90137478 Z M8.35267358,9.28915663 C8.35267358,9.67068464 8.16921477,9.90763006 7.80229164,10 L7.80229164,8.5 C7.9857532,8.62449861 8.12334731,8.74497934 8.21507809,8.86144578 C8.30680888,8.97791223 8.35267358,9.12048108 8.35267358,9.28915663 Z M6.15114582,5.66382979 C6.15114582,5.30212585 6.33460463,5.08085147 6.70152776,5 L6.70152776,6.5 C6.50811092,6.37233979 6.36802803,6.24787295 6.28127488,6.12659574 C6.19452174,6.00531854 6.15114582,5.85106477 6.15114582,5.66382979 Z" id="Combined-Shape"></path>
                        </g>
                    </g>
                </g>
            </g>
        </g>
    </g>
</svg>