<?xml version="1.0" encoding="UTF-8"?>
<svg width="15px" height="16px" viewBox="0 0 15 16" version="1.1" xmlns="http://www.w3.org/2000/svg" xmlns:xlink="http://www.w3.org/1999/xlink">
    <!-- Generator: Sketch 52.2 (67145) - http://www.bohemiancoding.com/sketch -->
    <title>Group 45</title>
    <desc>Created with Sketch.</desc>
    <g id="Page-3" stroke="none" stroke-width="1" fill="none" fill-rule="evenodd">
        <g id="Compare-Chart---Atlassian-Copy-2" transform="translate(-631.000000, -913.000000)">
            <g id="KPI-INfo" transform="translate(612.000000, 893.000000)">
                <g id="KPI-Info">
                    <g id="Group-34" transform="translate(19.000000, 18.000000)">
                        <g id="Group-4">
                            <g id="Group-23">
                                <g id="Group-33">
                                    <g id="Group-45" transform="translate(0.000000, 2.000000)">
                                        <g id="Group-46">
                                            <g id="Group-47">
                                                <g id="Group-48">
                                                    <rect id="Rectangle-8" fill="#05EEE8" fill-rule="nonzero" x="0" y="0.5" width="15" height="15" rx="2"></rect>
                                                    <g id="Group-15"></g>
                                                    <path d="M11.1666667,3.375 L10.7083333,3.375 L10.7083333,2.45833333 L9.79166667,2.45833333 L9.79166667,3.375 L5.20833333,3.375 L5.20833333,2.45833333 L4.29166667,2.45833333 L4.29166667,3.375 L3.83333333,3.375 C3.32916667,3.375 2.91666667,3.7875 2.91666667,4.29166667 L2.91666667,11.625 C2.91666667,12.1291667 3.32916667,12.5416667 3.83333333,12.5416667 L11.1666667,12.5416667 C11.6708333,12.5416667 12.0833333,12.1291667 12.0833333,11.625 L12.0833333,4.29166667 C12.0833333,3.7875 11.6708333,3.375 11.1666667,3.375 Z M11.1666667,11.625 L3.83333333,11.625 L3.83333333,6.58333333 L11.1666667,6.58333333 L11.1666667,11.625 Z M11.1666667,5.66666667 L3.83333333,5.66666667 L3.83333333,4.29166667 L11.1666667,4.29166667 L11.1666667,5.66666667 Z" id="Shape" stroke="#262635" stroke-width="0.6" fill="#1F1F2C" fill-rule="nonzero"></path>
                                                </g>
                                            </g>
                                        </g>
                                    </g>
                                </g>
                            </g>
                        </g>
                    </g>
                </g>
            </g>
        </g>
    </g>
</svg>