<?xml version="1.0" encoding="UTF-8"?>
<svg width="27px" height="24px" viewBox="0 0 27 24" version="1.1" xmlns="http://www.w3.org/2000/svg" xmlns:xlink="http://www.w3.org/1999/xlink">
    <!-- Generator: Sketch 52.1 (67048) - http://www.bohemiancoding.com/sketch -->
    <title>Group 12</title>
    <desc>Created with Sketch.</desc>
    <g id="Page-1" stroke="none" stroke-width="1" fill="none" fill-rule="evenodd">
        <g id="Compare-Chart---Atlassian-Copy-3" transform="translate(-480.000000, -97.000000)" fill-rule="nonzero">
            <g id="Company-Metrics-Box-Monzo" transform="translate(413.000000, 85.000000)">
                <g id="Comapny-Header" transform="translate(3.000000, 0.000000)">
                    <g id="Monzo-Logo" transform="translate(54.000000, 0.000000)">
                        <g id="Group-6">
                            <g transform="translate(8.000000, 8.000000)">
                                <g id="Group-12">
                                    <g id="Group" transform="translate(2.966667, 4.533333)" fill="#2F2F3E">
                                        <path d="M25.0653606,16.4063968 C25.0655431,16.7219555 24.9447257,17.0246706 24.7294761,17.2479756 L19.5837298,22.5781019 C19.4522199,22.7136075 19.2549623,22.7539424 19.0836064,22.6803662 C18.9122504,22.60679 18.800391,22.4337275 18.8,22.2415867 L18.8,10.2980895 C22.9777535,6.27607834 25.0666242,4.32314044 25.066612,4.4392758 C25.0663339,7.09863603 25.0659168,11.0876764 25.0653606,16.4063968 Z" id="path4"></path>
                                        <path d="M20.9538075,0.139327298 C20.7740346,-0.0464424328 20.4825879,-0.0464424328 20.302815,0.139327298 L12.6396818,8.05903204 L12.5333333,8.05903204 L12.5333333,16.9984466 L12.6396818,17.2333333 L18.789627,10.8772872 L25.0666667,4.39008414 L20.9538075,0.139327298 Z" id="path6"></path>
                                        <path d="M4.90515436e-07,16.40614 C-0.000280962323,16.7218259 0.120568998,17.0246925 0.33595474,17.2480875 L5.48277375,22.5781051 C5.61431125,22.7136078 5.81161006,22.7539416 5.98300165,22.6803667 C6.15439324,22.6067918 6.26627579,22.4337328 6.26666667,22.2415959 L6.26666667,10.2979583 C2.08888889,6.19434931 1.03497432e-08,4.18019118 1.33068127e-08,4.2554839 C1.19353173e-07,6.9556297 2.78422714e-07,11.0058484 4.90515436e-07,16.40614 Z" id="path8"></path>
                                        <path d="M4.80451987,0.139321054 C4.62321941,-0.0464403512 4.32929624,-0.0464403512 4.14799577,0.139321054 L0,4.38988738 L6.33037787,10.8767997 L12.5333333,17.2333333 L12.5333333,8.05944323 L4.80451987,0.139321054 Z" id="path10"></path>
                                    </g>
                                    <rect id="Rectangle" x="2.84217094e-13" y="0" width="31" height="31"></rect>
                                </g>
                            </g>
                        </g>
                    </g>
                </g>
            </g>
        </g>
    </g>
</svg>