<?xml version="1.0" encoding="UTF-8"?>
<svg width="15px" height="16px" viewBox="0 0 15 16" version="1.1" xmlns="http://www.w3.org/2000/svg" xmlns:xlink="http://www.w3.org/1999/xlink">
    <!-- Generator: Sketch 52.2 (67145) - http://www.bohemiancoding.com/sketch -->
    <title>Group 38</title>
    <desc>Created with Sketch.</desc>
    <g id="Page-3" stroke="none" stroke-width="1" fill="none" fill-rule="evenodd">
        <g id="Compare-Chart---Atlassian-Copy-2" transform="translate(-453.000000, -850.000000)">
            <g id="Group-38" transform="translate(453.000000, 850.000000)">
                <rect id="Rectangle-8" fill="#0077D0" fill-rule="nonzero" x="0" y="0.722084367" width="15" height="15" rx="2"></rect>
                <path d="M7.37083333,7.77916667 C6.14125,7.45958333 5.74583333,7.12916667 5.74583333,6.61458333 C5.74583333,6.02416667 6.29291667,5.6125 7.20833333,5.6125 C7.9775,5.6125 8.36208333,5.905 8.50291667,6.37083333 C8.56791667,6.5875 8.74666667,6.75 8.97416667,6.75 L9.13666667,6.75 C9.49416667,6.75 9.74875,6.39791667 9.62416667,6.06208333 C9.39666667,5.42291667 8.86583333,4.89208333 8.02083333,4.68625 L8.02083333,4.3125 C8.02083333,3.86291667 7.65791667,3.5 7.20833333,3.5 C6.75875,3.5 6.39583333,3.86291667 6.39583333,4.3125 L6.39583333,4.67 C5.345,4.8975 4.5,5.58 4.5,6.62541667 C4.5,7.87666667 5.53458333,8.49958333 7.04583333,8.8625 C8.4,9.1875 8.67083333,9.66416667 8.67083333,10.1679167 C8.67083333,10.5416667 8.40541667,11.1375 7.20833333,11.1375 C6.31458333,11.1375 5.85416667,10.8179167 5.67541667,10.3629167 C5.59416667,10.1516667 5.41,10 5.18791667,10 L5.03625,10 C4.67333333,10 4.41875,10.3683333 4.55416667,10.7041667 C4.86291667,11.4570833 5.58333333,11.90125 6.39583333,12.0745833 L6.39583333,12.4375 C6.39583333,12.8870833 6.75875,13.25 7.20833333,13.25 C7.65791667,13.25 8.02083333,12.8870833 8.02083333,12.4375 L8.02083333,12.0854167 C9.07708333,11.885 9.91666667,11.2729167 9.91666667,10.1625 C9.91666667,8.62416667 8.60041667,8.09875 7.37083333,7.77916667 Z" id="Path" stroke="#21212E" stroke-width="0.3" fill="#21212E"></path>
            </g>
        </g>
    </g>
</svg>